# xmcd
#
# Track frame offsets:
#	183
#	20708
#	39083
#	56858
#	73245
#	94695
#	116295
#	146820
#	171420
#	191970
#	204158
#	230220
#	245183
#	266408
#	293070
#	314633
#
# Disc length: 4457 seconds
#
# Revision: 5
# Processed by: cddbd v1.5.2PL0 Copyright (c) Steve Scherf et al.
# Submitted via: audiograbber 1.83.01
#
DISCID=fd116710
DTITLE=Various Artist - Rock and Pop Diamonds - 1983
DYEAR=1983
DGENRE=Rock
TTITLE0=Gang Of Four - Is It Love
TTITLE1=Pat Benatar - Love Is A Battlefield
TTITLE2=Romantics - Talking In Your Sleep
TTITLE3=Mike Oldfield - Crime Of Passion
TTITLE4=Big Country - In A Big Country
TTITLE5=Twelve Drummers Drumming - We'll Be The First Ones
TTITLE6=Genesis - Mama
TTITLE7=Russ Ballard - Voices
TTITLE8=Men At Work - It's A Mistake
TTITLE9=Smiths - The Charming Man
TTITLE10=Echo and The Bunnymen - The Killing Moon
TTITLE11=Talk Talk - My Foolish Friend
TTITLE12=China Crisis - Wishful Thinking
TTITLE13=Paul Young - Wherever I Lay My Hat
TTITLE14=XTC - Wonderland
TTITLE15=Nits - Sketches Of Spain
EXTD=
EXTT0=
EXTT1=
EXTT2=
EXTT3=
EXTT4=
EXTT5=
EXTT6=
EXTT7=
EXTT8=
EXTT9=
EXTT10=
EXTT11=
EXTT12=
EXTT13=
EXTT14=
EXTT15=
PLAYORDER=
